<svg xmlns="http://www.w3.org/2000/svg" width="940" height="341" viewBox="0 0 940 341"><rect width="100%" height="100%" fill="#DDDDDD"/><path fill="#999999" d="M207.815 152.44q0 7.56 3.91 11.53 3.9 3.97 11.09 3.97 3.75 0 6.69-1.19 2.93-1.19 4.93-3.25 2-2.06 3.04-4.87 1.03-2.82 1.03-6.07 0-3.68-1.13-6.59-1.12-2.91-3.19-4.91-2.06-2-4.9-3.06-2.85-1.06-6.22-1.06-3.5 0-6.31 1.16-2.82 1.15-4.82 3.21-2 2.07-3.06 4.91-1.06 2.84-1.06 6.22Zm-7.56 63.25 28.06-35.06q1.06-1.32 2-2.57.94-1.25 1.81-2.5-3.12 2-6.87 3.04-3.75 1.03-7.88 1.03-4.69 0-9.19-1.63-4.5-1.62-8-4.9-3.5-3.29-5.65-8.13-2.16-4.84-2.16-11.34 0-6.07 2.25-11.38 2.25-5.31 6.31-9.31 4.07-4 9.75-6.31 5.69-2.32 12.57-2.32 6.93 0 12.47 2.19 5.53 2.19 9.43 6.13 3.91 3.93 6 9.43 2.1 5.5 2.1 12.07 0 4.18-.72 7.93t-2.03 7.22q-1.32 3.47-3.19 6.78-1.88 3.32-4.19 6.57l-20.69 29.5q-1.06 1.5-3.18 2.53-2.13 1.03-4.82 1.03h-14.18Zm76.43-34.06h27.5v-29.57q0-4.18.57-9.25l-28.07 38.82Zm40.94 0h11.38v8.93q0 1.25-.82 2.16-.81.91-2.31.91h-8.25v22.06h-13.44v-22.06h-38.12q-1.56 0-2.75-.97t-1.5-2.41l-1.63-7.81 42.82-57.19h14.62v56.38Zm83.94-11.13q0 11.81-2.53 20.53t-7 14.41q-4.47 5.69-10.56 8.47-6.1 2.78-13.16 2.78-7.06 0-13.09-2.78-6.04-2.78-10.47-8.47-4.44-5.69-6.94-14.41-2.5-8.72-2.5-20.53 0-11.87 2.5-20.56t6.94-14.38q4.43-5.68 10.47-8.46 6.03-2.79 13.09-2.79t13.16 2.79q6.09 2.78 10.56 8.46 4.47 5.69 7 14.38 2.53 8.69 2.53 20.56Zm-15.94 0q0-9.81-1.44-16.25-1.43-6.44-3.84-10.25-2.41-3.81-5.53-5.34-3.13-1.53-6.5-1.53-3.31 0-6.41 1.53-3.09 1.53-5.47 5.34-2.37 3.81-3.78 10.25-1.4 6.44-1.4 16.25 0 9.81 1.4 16.25 1.41 6.44 3.78 10.25 2.38 3.81 5.47 5.35 3.1 1.53 6.41 1.53 3.37 0 6.5-1.53 3.12-1.54 5.53-5.35 2.41-3.81 3.84-10.25 1.44-6.44 1.44-16.25Zm115.19 24.5-8.19 8.06-21.18-21.18-21.38 21.31-8.19-8.06 21.38-21.44-20.38-20.38 8.13-8.12 20.37 20.37 20.25-20.25 8.25 8.13-20.31 20.31 21.25 21.25Zm52-43.06-8.12-1.44q.93-6.5 3.62-11.4 2.69-4.91 6.72-8.19 4.03-3.28 9.25-4.94 5.22-1.66 11.22-1.66 6.25 0 11.28 1.79 5.03 1.78 8.59 4.93 3.57 3.16 5.47 7.41 1.91 4.25 1.91 9.19 0 4.31-.97 7.59-.97 3.28-2.78 5.72-1.81 2.44-4.5 4.12-2.69 1.69-6.06 2.82 8.12 2.56 12.12 7.81t4 13.19q0 6.75-2.5 11.93-2.5 5.19-6.75 8.72-4.25 3.53-9.84 5.35-5.6 1.81-11.85 1.81-6.81 0-11.87-1.56-5.06-1.57-8.81-4.63-3.75-3.06-6.38-7.5-2.62-4.44-4.5-10.25l6.81-2.81q2.69-1.13 5.03-.59 2.35.53 3.41 2.53 1.13 2.18 2.47 4.31 1.34 2.12 3.22 3.78 1.87 1.66 4.4 2.69 2.54 1.03 6.04 1.03 3.93 0 6.87-1.28t4.91-3.35q1.97-2.06 2.93-4.59.97-2.53.97-5.09 0-3.25-.68-5.91-.69-2.66-2.88-4.53-2.19-1.88-6.28-2.94t-10.97-1.06v-11q5.69-.06 9.44-1.06 3.75-1 5.97-2.78 2.22-1.79 3.09-4.29.88-2.5.88-5.5 0-6.37-3.57-9.68-3.56-3.32-9.5-3.32-2.75 0-5.06.79-2.31.78-4.16 2.18-1.84 1.41-3.09 3.28-1.25 1.88-1.87 4.13-1.07 2.87-2.79 3.81-1.71.94-4.84.44Zm74.63 29.69h27.5v-29.57q0-4.18.56-9.25l-28.06 38.82Zm40.93 0h11.38v8.93q0 1.25-.81 2.16-.82.91-2.32.91h-8.25v22.06h-13.43v-22.06h-38.13q-1.56 0-2.75-.97t-1.5-2.41l-1.62-7.81 42.81-57.19h14.62v56.38Zm63 22.5h16.25v11.56h-50v-11.56h18.32v-52.69q0-3.13.18-6.44l-13 10.88q-1.12.87-2.22 1.09-1.09.22-2.06.03t-1.72-.65q-.75-.47-1.12-1.04l-4.88-6.68 27.57-23.44h12.68v78.94Z"/></svg>