<svg width="302" height="13" viewBox="0 0 302 13" fill="none" xmlns="http://www.w3.org/2000/svg">
<rect x="302.373" y="12.577" width="13.1824" height="12.5254" rx="6.2627" transform="rotate(-180 302.373 12.577)" fill="#00F0FF"/>
<rect x="261.061" y="12.577" width="13.1824" height="12.5254" rx="6.2627" transform="rotate(-180 261.061 12.577)" fill="#00F0FF"/>
<rect x="219.748" y="12.577" width="13.1824" height="12.5254" rx="6.2627" transform="rotate(-180 219.748 12.577)" fill="#00F0FF"/>
<rect x="178.435" y="12.577" width="13.1824" height="12.5254" rx="6.2627" transform="rotate(-180 178.435 12.577)" fill="#00F0FF"/>
<rect x="137.121" y="12.577" width="13.1824" height="12.5254" rx="6.2627" transform="rotate(-180 137.121 12.577)" fill="#00F0FF"/>
<rect x="95.8076" y="12.577" width="13.1824" height="12.5254" rx="6.2627" transform="rotate(-180 95.8076 12.577)" fill="#00F0FF"/>
<rect x="54.4941" y="12.5773" width="13.1824" height="12.5254" rx="6.2627" transform="rotate(-180 54.4941 12.5773)" fill="#00F0FF"/>
<rect x="13.1826" y="12.5773" width="13.1824" height="12.5254" rx="6.2627" transform="rotate(-180 13.1826 12.5773)" fill="#00F0FF"/>
</svg>
