<svg width="34" height="35" viewBox="0 0 34 35" fill="none" xmlns="http://www.w3.org/2000/svg">
<circle cx="17.0001" cy="17.6642" r="16.7999" fill="#1A202C"/>
<path d="M22.2502 17.6643C22.2502 19.0566 21.6971 20.392 20.7125 21.3766C19.7279 22.3611 18.3926 22.9143 17.0002 22.9143C15.6078 22.9143 14.2725 22.3611 13.2879 21.3766C12.3033 20.392 11.7502 19.0566 11.7502 17.6643C11.7502 17.365 11.7817 17.0728 11.8359 16.7893H10.0002V23.784C10.0002 24.2705 10.3939 24.6643 10.8804 24.6643H23.1217C23.3549 24.6638 23.5783 24.5709 23.743 24.4058C23.9077 24.2408 24.0002 24.0172 24.0002 23.784V16.7893H22.1644C22.2187 17.0728 22.2502 17.365 22.2502 17.6643ZM17.0002 21.1643C17.4599 21.1641 17.9152 21.0735 18.3399 20.8974C18.7646 20.7214 19.1504 20.4634 19.4754 20.1383C19.8004 19.8131 20.0582 19.4271 20.234 19.0023C20.4099 18.5775 20.5003 18.1223 20.5002 17.6625C20.5001 17.2028 20.4094 16.7476 20.2334 16.3228C20.0573 15.8981 19.7994 15.5123 19.4742 15.1873C19.149 14.8623 18.763 14.6045 18.3382 14.4287C17.9135 14.2528 17.4582 14.1624 16.9984 14.1625C16.07 14.1627 15.1796 14.5318 14.5232 15.1885C13.8668 15.8452 13.4982 16.7358 13.4984 17.6643C13.4987 18.5928 13.8677 19.4831 14.5244 20.1395C15.1812 20.7959 16.0717 21.1645 17.0002 21.1643ZM21.2002 13.9893H23.2984C23.4378 13.9893 23.5716 13.934 23.6703 13.8356C23.769 13.7372 23.8247 13.6037 23.8252 13.4643V11.366C23.8252 11.2263 23.7697 11.0923 23.6709 10.9935C23.5721 10.8948 23.4382 10.8393 23.2984 10.8393H21.2002C21.0605 10.8393 20.9265 10.8948 20.8277 10.9935C20.7289 11.0923 20.6734 11.2263 20.6734 11.366V13.4643C20.6752 13.753 20.9114 13.9893 21.2002 13.9893ZM17.0002 0.864258C12.5446 0.864258 8.27141 2.63425 5.1208 5.78486C1.97019 8.93548 0.200195 13.2086 0.200195 17.6643C0.200195 22.1199 1.97019 26.393 5.1208 29.5437C8.27141 32.6943 12.5446 34.4643 17.0002 34.4643C19.2064 34.4643 21.391 34.0297 23.4293 33.1854C25.4676 32.3412 27.3196 31.1037 28.8796 29.5437C30.4396 27.9836 31.6771 26.1316 32.5214 24.0933C33.3657 22.0551 33.8002 19.8705 33.8002 17.6643C33.8002 15.4581 33.3657 13.2734 32.5214 11.2352C31.6771 9.19691 30.4396 7.34489 28.8796 5.78486C27.3196 4.22484 25.4676 2.98736 23.4293 2.14308C21.391 1.2988 19.2064 0.864258 17.0002 0.864258ZM25.7502 24.47C25.7502 25.5393 24.8752 26.4143 23.8059 26.4143H10.1944C9.1252 26.4143 8.2502 25.5393 8.2502 24.47V10.8585C8.2502 9.78926 9.1252 8.91426 10.1944 8.91426H23.8059C24.8752 8.91426 25.7502 9.78926 25.7502 10.8585V24.47Z" fill="white"/>
</svg>
