<svg width="35" height="35" viewBox="0 0 35 35" fill="none" xmlns="http://www.w3.org/2000/svg">
<circle cx="17.3996" cy="17.6642" r="16.7999" fill="#1A202C"/>
<path d="M17.3996 0.864258C8.12111 0.864258 0.599609 8.38576 0.599609 17.6643C0.599609 26.9428 8.12111 34.4643 17.3996 34.4643C26.6781 34.4643 34.1996 26.9428 34.1996 17.6643C34.1996 8.38576 26.6781 0.864258 17.3996 0.864258ZM24.2334 14.6263C24.2404 14.7698 24.2421 14.9133 24.2421 15.0533C24.2421 19.4283 20.9154 24.47 14.8289 24.47C13.0304 24.473 11.2693 23.9565 9.75736 22.9825C10.0146 23.014 10.2789 23.0263 10.5466 23.0263C12.0971 23.0263 13.5234 22.4995 14.6556 21.6105C13.9656 21.597 13.297 21.3685 12.7431 20.9569C12.1891 20.5454 11.7773 19.9712 11.5651 19.3145C12.0606 19.4087 12.5711 19.389 13.0579 19.2568C12.3089 19.1053 11.6355 18.6995 11.1516 18.1082C10.6677 17.5168 10.4033 16.7763 10.4031 16.0123V15.972C10.8494 16.2188 11.3604 16.3693 11.9029 16.3868C11.2008 15.9194 10.7037 15.2014 10.5134 14.3797C10.3231 13.5581 10.454 12.6947 10.8791 11.9663C11.7103 12.9883 12.7468 13.8243 13.9216 14.4203C15.0964 15.0163 16.3833 15.3589 17.6989 15.426C17.5316 14.7161 17.6036 13.9707 17.9036 13.3059C18.2037 12.6411 18.7149 12.094 19.358 11.7497C20.001 11.4055 20.7398 11.2833 21.4594 11.4022C22.1791 11.5211 22.8393 11.8744 23.3374 12.4073C24.0779 12.2607 24.7881 11.9891 25.4374 11.604C25.1905 12.3707 24.6738 13.0218 23.9831 13.4363C24.6391 13.3573 25.2796 13.1809 25.8836 12.913C25.44 13.5778 24.8811 14.158 24.2334 14.6263Z" fill="white"/>
</svg>
