<svg width="34" height="35" viewBox="0 0 34 35" fill="none" xmlns="http://www.w3.org/2000/svg">
<circle cx="16.7999" cy="17.6642" r="16.7999" fill="#1A202C"/>
<path d="M16.8 0.864258C7.5215 0.864258 0 8.38576 0 17.6643C0 26.9428 7.5215 34.4643 16.8 34.4643C26.0785 34.4643 33.6 26.9428 33.6 17.6643C33.6 8.38576 26.0785 0.864258 16.8 0.864258ZM20.7795 12.4738H18.2543C17.955 12.4738 17.6225 12.8675 17.6225 13.3908V15.2143H20.7813L20.3035 17.8148H17.6225V25.6215H14.6423V17.8148H11.9385V15.2143H14.6423V13.6848C14.6423 11.4903 16.1648 9.70701 18.2543 9.70701H20.7795V12.4738Z" fill="white"/>
</svg>
