<svg width="24" height="18" viewBox="0 0 24 18" fill="none" xmlns="http://www.w3.org/2000/svg">
    <path d="M6.22 17.62C5.26 17.62 4.42 17.44 3.7 17.08C2.98 16.68 2.4 16.16 1.96 15.52C1.56 14.88 1.24 14.12 1 13.24C0.76 12.36 0.64 11.44 0.64 10.48C0.64 8.52 1.14 6.68 2.14 4.96C3.18 3.24 4.78 1.88 6.94 0.879997L7.48 1.96C6.36 2.48 5.36 3.24 4.48 4.24C3.64 5.2 3.14 6.22 2.98 7.3C2.74 8.14 2.72 8.96 2.92 9.76C3.8 8.8 4.98 8.32 6.46 8.32C7.82 8.32 8.94 8.74 9.82 9.58C10.7 10.38 11.14 11.5 11.14 12.94C11.14 14.34 10.68 15.48 9.76 16.36C8.84 17.2 7.66 17.62 6.22 17.62ZM18.58 17.62C17.62 17.62 16.78 17.44 16.06 17.08C15.34 16.68 14.76 16.16 14.32 15.52C13.92 14.88 13.6 14.12 13.36 13.24C13.12 12.36 13 11.44 13 10.48C13 8.52 13.5 6.68 14.5 4.96C15.54 3.24 17.14 1.88 19.3 0.879997L19.84 1.96C18.72 2.48 17.72 3.24 16.84 4.24C16 5.2 15.5 6.22 15.34 7.3C15.1 8.14 15.08 8.96 15.28 9.76C16.16 8.8 17.34 8.32 18.82 8.32C20.18 8.32 21.3 8.74 22.18 9.58C23.06 10.38 23.5 11.5 23.5 12.94C23.5 14.34 23.04 15.48 22.12 16.36C21.2 17.2 20.02 17.62 18.58 17.62Z" fill="white"/>
    </svg>
    